# xmcd
#
# Track frame offsets: 
#        150
#        20424
#        38233
#        56231
#        71250
#        85680
#        101291
#        122660
#        150502
#        171264
#        185791
#        197467
#        226683
#
# Disc length: 3231 seconds
#
# Revision: 6
# Processed by: cddbd v1.5.2PL0 Copyright (c) Steve Scherf et al.
# Submitted via: ExactAudioCopy v1.3
#
DISCID=9c0c9d0d
DTITLE=John Mellencamp - No Better Than This
DYEAR=2010
DGENRE=Blues
TTITLE0=Save Some Time To Dream
TTITLE1=The West End
TTITLE2=Right Behind Me
TTITLE3=A Graceful Fall
TTITLE4=No Better Than This
TTITLE5=Thinking About You
TTITLE6=Coming Down The Road
TTITLE7=No One Cares About Me
TTITLE8=Love At First Sight
TTITLE9=Don't Forget About Me
TTITLE10=Each Day Of Sorrow
TTITLE11=Easter Eve
TTITLE12=Clumsy Ol' World
EXTD=YEAR: 2010
EXTT0=
EXTT1=
EXTT2=
EXTT3=
EXTT4=
EXTT5=
EXTT6=
EXTT7=
EXTT8=
EXTT9=
EXTT10=
EXTT11=
EXTT12=
PLAYORDER=
